<svg version="1.1" id="Layer_1" xmlns="http://www.w3.org/2000/svg" xmlns:xlink="http://www.w3.org/1999/xlink" x="0px" y="0px"
	 width="100%" viewBox="0 0 912 480" enable-background="new 0 0 912 480" xml:space="preserve">
<path fill="#000000" opacity="1.000000" stroke="none" 
	d="
M286.023560,286.020416 
	C285.973999,282.190674 285.911163,278.361053 285.879639,274.531158 
	C285.859283,272.060638 287.103851,271.006500 289.585327,270.911560 
	C294.697510,270.715973 300.504364,275.275543 301.334686,280.323669 
	C302.211395,285.653717 303.040924,285.952179 310.342377,285.788788 
	C314.996490,285.684662 315.748230,283.096436 315.841980,279.304749 
	C316.051025,270.851593 316.137909,270.640717 324.854828,270.837616 
	C329.510620,270.942780 331.012451,269.194519 330.878174,264.685638 
	C330.671692,257.750427 332.727783,255.811081 339.666473,255.782440 
	C343.057129,255.768448 346.252777,255.958267 345.633118,250.988297 
	C345.359558,248.794037 347.437805,248.474564 348.815643,247.668365 
	C351.275208,246.229263 354.123138,245.223618 355.828003,241.253464 
	C344.940033,247.681274 334.854462,253.299576 325.133759,259.490753 
	C318.524292,263.700378 311.120789,266.417725 304.733856,271.010284 
	C303.072479,272.204926 300.457275,273.265778 298.968689,270.804016 
	C297.678314,268.670044 299.142914,266.559021 300.746918,265.055389 
	C304.412231,261.619324 308.644165,258.911133 313.066376,256.585815 
	C318.681732,253.633118 314.901215,248.909454 315.335266,245.062851 
	C315.736328,241.508514 312.676697,241.005768 309.859436,240.820755 
	C309.030609,240.766342 308.194305,240.665085 307.386932,240.476273 
	C305.430756,240.018677 302.595428,241.931992 301.612823,239.119324 
	C300.652740,236.371185 301.651764,233.555695 303.261383,231.093781 
	C303.441620,230.818130 303.654877,230.520401 303.927002,230.354813 
	C312.268707,225.278900 318.964233,217.744370 328.238556,214.074127 
	C328.810791,213.847687 329.511536,213.945984 330.172211,213.891556 
	C332.738098,217.341644 329.246399,222.398361 333.158081,225.033112 
	C335.563965,226.653641 338.671051,225.833679 341.478088,225.751144 
	C344.309601,225.667877 345.512543,224.060760 345.738800,221.269913 
	C346.270447,214.712006 345.199615,213.250427 337.056366,210.459229 
	C338.056946,206.291656 342.015900,205.789124 344.713654,203.718430 
	C348.904480,210.953690 349.108917,210.937363 355.636047,210.749817 
	C359.569427,210.636810 361.034088,208.723343 360.810059,205.096313 
	C360.581787,201.399826 361.555847,196.914856 355.870636,196.373581 
	C353.223907,196.121597 350.545715,196.199921 347.428009,195.626968 
	C347.050385,192.132751 347.183289,189.164505 347.604645,186.174454 
	C348.144714,182.342133 349.833832,180.619690 353.806824,180.736038 
	C356.398834,180.811951 359.491211,180.799057 360.205292,177.318329 
	C360.947357,173.701294 361.289703,169.939713 358.450226,166.961655 
	C354.965363,163.306717 355.556610,160.528336 360.583862,158.022659 
	C363.453583,164.525604 365.638245,166.073090 371.225616,165.476624 
	C373.522766,165.231415 375.536591,164.559799 375.671600,161.727112 
	C375.798309,159.068466 376.197601,156.320282 375.077240,153.830612 
	C373.310089,149.903793 368.577454,152.540070 365.711761,150.072983 
	C367.557404,147.837952 369.227753,145.808945 370.906952,143.787277 
	C371.225677,143.403549 371.555847,143.023453 371.921021,142.685135 
	C374.216553,140.558411 375.959808,140.401398 376.782593,143.980942 
	C378.359009,150.839493 379.020477,151.176498 386.448273,150.722931 
	C389.410431,150.542038 390.722900,149.288757 390.608521,146.406250 
	C390.410706,141.424301 390.496582,136.264130 382.543274,135.979507 
	C386.306671,132.564041 388.738678,130.743149 392.551331,133.737595 
	C395.477509,136.035812 399.254181,135.087509 402.709320,134.805862 
	C404.033142,134.697937 404.888519,133.673019 404.852722,132.422607 
	C404.772430,129.618134 406.269257,127.150597 406.730042,124.440590 
	C402.154388,124.019012 401.586700,124.118607 398.599548,125.172523 
	C380.639740,131.509018 365.985107,141.909729 355.767365,158.409668 
	C349.568909,168.419083 345.633392,178.918655 345.092560,190.676178 
	C344.998169,192.728622 345.009491,194.715515 347.013458,195.997742 
	C344.297394,200.906982 340.368073,204.459518 335.336517,206.968460 
	C326.037872,211.605148 317.933685,218.581039 307.048431,221.495132 
	C309.402710,215.589417 313.146057,211.658081 318.042908,208.673248 
	C319.883911,207.551086 321.519165,205.977875 323.480652,205.185837 
	C334.148438,200.878311 337.171082,191.847855 339.020233,181.610306 
	C343.790192,155.202332 359.108398,136.161102 382.245911,123.666763 
	C397.821625,115.255814 414.584900,110.954849 432.583588,115.602875 
	C439.475403,117.382637 446.727539,117.928802 453.105652,121.401001 
	C459.858734,125.077339 464.949371,120.867325 470.160980,117.900917 
	C486.922760,108.360214 503.188385,98.002930 520.443115,89.252342 
	C530.299683,84.253662 539.921387,78.407158 548.734192,71.547333 
	C554.467896,67.084274 554.202698,64.686920 549.257996,59.493858 
	C546.091736,56.168598 541.215881,54.661808 539.322937,50.142677 
	C550.555664,52.073467 557.873413,60.240726 565.717346,67.558006 
	C567.461609,65.240509 565.003784,63.999603 565.669678,61.845028 
	C570.163452,61.265976 570.962646,57.574440 571.799683,53.560211 
	C572.492859,50.236053 579.922363,47.133366 583.043701,48.435673 
	C585.544617,49.479130 587.139709,56.318768 585.630310,59.332195 
	C585.123474,60.343964 584.319397,60.822071 583.279236,60.914562 
	C581.953613,61.032436 580.619385,61.076515 579.287903,61.103355 
	C571.677917,61.256748 568.737488,65.392883 571.649475,72.555779 
	C573.673462,77.534569 578.493958,75.477371 582.222412,75.756157 
	C585.508179,76.001831 585.763062,73.419090 585.843933,70.961098 
	C585.887756,69.628845 586.028076,68.287788 585.930359,66.965080 
	C585.619629,62.760441 587.296143,60.969059 591.711609,61.019310 
	C600.278931,61.116814 603.193176,64.765152 601.073853,73.328903 
	C600.714539,74.780945 600.060120,75.772926 598.523010,75.972855 
	C597.699524,76.079964 596.820068,75.953033 596.043152,76.187637 
	C592.628052,77.218887 586.831970,73.256401 586.316772,80.301338 
	C586.037354,84.121872 585.942017,87.867027 587.674438,91.905663 
	C589.815063,96.895752 592.120667,100.166550 597.760498,100.471100 
	C598.997314,100.537880 599.692261,101.706711 599.612732,103.051483 
	C599.532104,104.414886 598.624390,105.243111 597.430664,105.449203 
	C595.308716,105.815567 593.144531,106.112823 590.997375,106.117134 
	C587.742432,106.123665 586.097351,107.320740 586.089111,110.818810 
	C586.067627,119.937119 586.992615,121.391434 595.198242,121.163399 
	C599.888733,121.033051 601.752563,124.884193 599.249207,128.518127 
	C596.875427,131.964005 576.640808,144.664154 572.077209,145.515213 
	C569.643433,143.412704 571.976074,138.647049 568.240173,137.543381 
	C565.605042,136.764908 562.641785,137.033920 559.821777,136.965134 
	C557.676208,136.912781 556.166687,137.947693 556.352905,140.242126 
	C556.709167,144.631088 553.893799,150.368530 561.645325,151.785767 
	C559.865173,154.244507 558.391785,155.243042 556.204529,153.171921 
	C552.202881,149.382660 547.446106,151.216736 543.049988,151.753693 
	C540.652710,152.046509 541.146851,154.927887 540.898254,156.833801 
	C539.782349,165.387817 539.799377,165.379669 531.079895,166.087906 
	C529.289490,166.233322 526.665833,166.022446 526.576172,168.259583 
	C526.311096,174.874344 521.048889,177.113739 516.686096,179.762711 
	C512.150085,182.516876 507.521606,185.094040 503.111908,188.088486 
	C498.838745,190.990204 496.936432,190.166016 495.672852,185.213852 
	C494.486969,180.566254 490.827423,181.501175 487.617096,181.327759 
	C484.416443,181.154892 482.227661,182.129456 481.571991,185.750961 
	C480.249634,193.054916 481.240631,195.132568 488.492371,195.447540 
	C492.674927,195.629227 493.093536,198.766678 495.547546,202.278397 
	C495.414398,192.992447 502.067352,191.357101 507.369812,188.213013 
	C528.813965,175.497650 550.578979,163.326294 571.656433,149.983826 
	C577.566528,146.242599 584.094910,143.478104 590.960632,139.946167 
	C587.400024,150.422989 578.890442,154.300079 571.279419,158.896500 
	C553.322998,169.740692 535.137878,180.205688 517.095703,190.909195 
	C513.809326,192.858826 510.748688,195.192566 507.609375,197.385529 
	C505.264282,199.023758 504.271362,201.362976 503.930359,204.170532 
	C501.966431,220.340057 496.650757,235.380463 487.098816,248.552917 
	C479.264038,259.357269 468.834625,267.386292 456.577942,272.855591 
	C440.737762,279.923950 424.154388,282.701080 406.902832,280.872711 
	C399.568665,280.095428 392.547516,277.870880 385.981781,274.475433 
	C382.315643,272.579498 379.148834,272.935272 375.684753,275.112335 
	C353.980713,288.752594 331.510864,301.095001 309.379303,314.011627 
	C308.520966,314.512604 307.598846,314.924927 306.667938,315.276764 
	C304.692719,316.023315 302.624756,316.353180 301.222748,314.378265 
	C299.533447,311.998627 301.713013,310.704193 303.107849,309.445160 
	C307.877625,305.139740 313.949249,302.974731 319.433838,299.857269 
	C331.724792,292.871094 343.688538,285.372528 355.505524,277.628693 
	C356.318176,277.096161 356.929138,276.255859 358.180237,275.240906 
	C364.295471,273.533630 369.268982,270.824036 373.753143,267.395233 
	C376.938171,264.959778 380.159515,264.248077 383.988861,264.877930 
	C385.566956,265.137482 387.211151,265.824615 389.143799,265.024506 
	C389.957642,262.349518 391.424561,259.310394 387.957428,257.370789 
	C384.179474,255.257324 377.728424,256.197113 377.272858,258.843353 
	C376.560059,262.983704 373.561127,264.323303 370.586670,266.183838 
	C366.246460,268.898651 361.598206,271.222443 358.003143,275.014709 
	C355.055817,275.391815 353.056732,277.665283 350.472290,278.809998 
	C347.485352,280.133026 345.892792,279.781128 345.067902,276.349823 
	C344.172119,272.623627 339.797760,270.708557 334.740326,271.459442 
	C330.555115,272.080841 331.377319,275.427063 331.287262,278.096069 
	C331.022095,285.958435 331.083282,286.155029 322.852997,286.126740 
	C318.161957,286.110626 316.285858,287.950623 316.171112,292.603333 
	C315.979431,300.376770 313.998230,301.986694 305.998993,301.578583 
	C304.276672,301.490692 301.961090,301.255585 301.748169,303.125946 
	C301.163391,308.263275 296.799988,309.433350 293.574951,311.817505 
	C291.918579,313.041992 289.660614,314.175873 288.075500,312.714783 
	C285.882568,310.693390 286.166016,307.533997 286.307953,304.709656 
	C286.415741,302.564636 287.810364,301.397675 289.852539,301.158264 
	C291.833313,300.926056 293.837616,300.835876 295.833496,300.804138 
	C299.102356,300.752106 300.556183,299.147125 300.840607,295.894928 
	C301.617615,287.009033 300.637482,285.838867 291.904846,285.964539 
	C290.239380,285.988495 288.573669,285.997223 286.454041,286.005798 
	C286.000031,285.998627 286.023560,286.020416 286.023560,286.020416 
M506.841248,152.936768 
	C510.535461,152.483582 511.295868,154.495178 511.344208,157.724716 
	C511.383698,160.363113 510.151245,164.021820 513.657043,165.182114 
	C517.091736,166.318863 521.191650,166.714798 524.370056,164.905884 
	C527.156189,163.320236 525.650513,159.716049 525.683105,156.991028 
	C525.726013,153.389435 523.792542,151.532806 520.135193,151.344803 
	C518.548096,151.263214 516.780029,151.724533 515.418457,150.396210 
	C516.546387,148.203339 521.270142,144.556625 523.218445,144.332596 
	C526.517883,143.953186 525.800964,147.223053 527.152283,148.586227 
	C530.400940,151.863358 534.617920,151.062561 538.454041,150.403229 
	C541.581299,149.865753 540.561584,146.758163 540.781982,144.559845 
	C541.073181,141.655182 539.934204,138.678802 540.945801,135.876495 
	C544.205872,135.876495 547.200500,135.730194 550.175171,135.911789 
	C554.338623,136.165939 555.787903,134.253067 555.719666,130.250198 
	C555.605408,123.551208 554.731567,122.074532 549.999329,121.961708 
	C541.452881,121.757942 541.451538,121.758125 540.301575,112.997185 
	C540.149902,111.841934 540.137329,110.654701 539.858398,109.532433 
	C538.979858,105.996628 535.973999,106.281273 533.396729,106.333206 
	C530.942261,106.382668 527.812317,105.066063 526.458069,108.553169 
	C524.170776,114.442474 527.172546,119.721443 533.342529,120.849876 
	C533.947998,120.960625 534.514954,121.282242 534.807983,121.394356 
	C535.923706,123.344437 532.712341,123.447960 533.573425,125.414818 
	C534.753296,124.898972 535.655579,124.509262 536.553955,124.110710 
	C538.727539,123.146416 540.980225,122.998001 542.417664,125.072624 
	C543.968323,127.310654 542.362549,129.175171 540.832703,130.764816 
	C540.036682,131.591995 539.074219,132.296326 538.090759,132.899368 
	C533.554321,135.681091 528.830078,138.185181 524.463440,141.208054 
	C518.453491,145.368515 511.314941,147.752472 505.304199,153.175735 
	C500.688934,154.230942 496.844788,157.037369 492.536896,158.761703 
	C490.690552,159.500748 488.169037,160.901627 486.657715,158.406143 
	C484.921692,155.539536 487.590088,154.121490 489.430695,152.926163 
	C498.469757,147.055939 507.400665,140.999924 516.964661,135.980942 
	C521.455994,133.623993 525.411682,130.547791 530.229004,126.914642 
	C526.946533,126.688499 525.940796,125.316048 524.751831,123.534653 
	C522.141357,119.623352 517.795654,121.241974 514.168335,121.452332 
	C511.026642,121.634506 511.273438,124.604568 511.179810,126.904762 
	C510.798767,136.267517 510.815857,136.280930 501.539703,136.210220 
	C498.918915,136.190247 496.617126,136.154877 496.227234,139.805893 
	C495.509338,146.528625 492.086426,150.166687 485.375488,151.099228 
	C482.137756,151.549149 481.241943,152.983627 481.189850,155.972778 
	C481.048981,164.056763 482.157654,165.182129 490.197266,165.143463 
	C493.178436,165.129120 495.316132,164.436234 496.390289,161.356842 
	C496.890564,159.922531 498.525543,159.364838 499.766907,158.523087 
	C502.075562,156.957581 504.763397,155.771759 506.841248,152.936768 
M455.964996,212.282959 
	C458.216583,206.607407 459.351257,200.532379 458.633331,194.645493 
	C455.733307,170.865631 433.994659,157.493454 411.653778,161.667191 
	C404.742798,162.958298 399.073883,166.578613 394.045807,172.113495 
	C389.408600,177.218140 385.479797,182.213272 384.225891,188.967712 
	C381.215027,205.186691 384.419678,219.323959 398.427338,229.607864 
	C403.639374,233.434341 409.263672,236.071579 416.136932,235.389084 
	C415.730560,232.910553 414.122498,233.324997 412.936127,232.988708 
	C404.945831,230.723846 397.661926,227.294586 392.601715,220.341400 
	C389.325928,215.840134 389.548706,214.510880 394.590576,212.143753 
	C410.618744,204.618637 425.478271,195.066025 440.511292,185.825272 
	C451.667114,178.967865 451.704895,178.866760 455.454041,191.610291 
	C455.870483,193.025650 456.211761,194.517227 456.248383,195.981934 
	C456.657196,212.340164 445.323364,227.707413 429.627869,232.394669 
	C427.092438,233.151840 424.238220,233.521698 422.061401,235.626785 
	C423.923492,237.325394 425.598907,236.568436 427.135498,236.233551 
	C440.555969,233.308502 450.305450,225.831757 455.964996,212.282959 
M465.638336,214.522125 
	C466.538971,208.133286 471.515930,211.221115 474.757599,210.848206 
	C478.080139,210.465973 480.858459,210.103058 480.779694,205.975082 
	C480.706360,202.130157 481.918213,196.855667 476.047180,196.760223 
	C469.485565,196.653549 468.162231,192.447784 466.987335,187.726196 
	C465.188263,180.496277 465.559052,180.122284 473.038147,180.065704 
	C479.750275,180.014923 480.803650,178.780396 480.655579,172.247421 
	C480.549866,167.583237 477.966064,166.345230 473.894287,166.224411 
	C469.763214,166.101837 466.644562,166.821304 466.267090,171.845932 
	C466.101318,174.052643 467.269257,176.407608 466.010834,178.444016 
	C463.136719,178.797562 463.240143,174.978256 459.721893,175.299301 
	C465.384460,188.627625 468.619415,202.120712 462.354980,215.782791 
	C456.186859,229.234787 445.752258,238.319321 431.375702,241.748993 
	C404.579437,248.141525 385.976562,234.021912 377.007874,212.770386 
	C374.994843,208.000427 374.856140,202.669113 374.574921,197.546524 
	C374.291229,192.378510 375.742676,187.313965 376.970245,182.306473 
	C378.241089,177.122604 382.355743,173.586243 384.957092,169.162354 
	C387.758118,164.398911 392.120667,161.219009 396.962006,158.930481 
	C401.536407,156.768112 406.554016,154.753067 410.588043,152.320786 
	C415.714172,149.230042 420.029297,154.478104 424.999664,151.334412 
	C421.466309,149.196442 420.392761,146.563004 420.622223,143.149536 
	C420.962128,138.092407 418.083344,136.840042 413.417572,136.793869 
	C408.562927,136.745850 406.480530,138.434097 406.260193,143.315598 
	C405.896729,151.368469 405.723358,151.360641 397.618286,151.246704 
	C397.285126,151.242020 396.949066,151.263947 396.619293,151.228058 
	C392.868713,150.819855 391.159668,152.268570 391.113586,156.264404 
	C391.069122,160.120880 385.763306,165.988434 381.921661,166.142990 
	C376.620026,166.356308 376.042725,169.057251 376.603271,173.404404 
	C377.454071,180.002472 375.956299,181.508896 369.531647,181.323349 
	C368.699219,181.299316 367.863403,181.344803 367.033508,181.290833 
	C363.081360,181.033844 361.271515,182.722488 361.218414,186.827255 
	C361.125427,194.017319 361.058075,194.118423 367.997803,195.806656 
	C372.456879,196.891418 373.731171,200.159851 373.175751,207.652573 
	C372.860504,211.905289 369.830536,211.253647 367.363678,211.154221 
	C362.751099,210.968277 361.443146,213.382584 361.923615,217.367065 
	C362.275482,220.284851 360.707703,224.029877 364.966583,225.460220 
	C369.790405,227.080246 374.507050,225.365768 376.938721,221.197174 
	C379.211548,223.603714 379.160309,223.574860 377.441010,226.627502 
	C375.180878,230.640488 375.777710,235.089935 377.712982,238.589111 
	C379.511169,241.840500 383.611084,240.399384 386.911560,240.192810 
	C389.359711,240.039566 389.628510,237.450653 391.465729,236.748489 
	C393.062714,237.438644 394.487518,238.193008 395.117615,240.175217 
	C389.726501,242.776474 390.805145,247.481369 391.830109,251.781418 
	C393.175690,257.426575 398.127075,255.407242 401.798523,255.662567 
	C405.321472,255.907562 405.531250,253.227081 405.676880,250.553421 
	C405.981262,244.963882 407.559692,243.946503 412.900909,245.687241 
	C414.001434,246.045898 415.117462,246.728149 416.205048,246.687851 
	C419.927917,246.549911 421.285400,248.404709 421.192108,251.865417 
	C421.119751,254.549576 422.539520,255.812912 425.197693,255.811768 
	C427.362579,255.810822 429.528595,255.842636 431.692078,255.918320 
	C434.669128,256.022461 435.695404,254.556641 435.858032,251.662094 
	C436.385742,242.268799 436.933990,241.749954 446.721924,240.786438 
	C449.009949,240.561203 449.762939,239.323578 451.031525,237.544952 
	C454.390045,232.835999 455.869751,226.015106 463.319519,225.255722 
	C465.091766,225.075058 465.561401,223.417526 465.614044,221.831558 
	C465.685852,219.669586 465.656708,217.504288 465.638336,214.522125 
M485.935333,226.924454 
	C486.066132,230.393387 484.723267,233.061737 481.779724,235.211456 
	C479.213440,226.324280 478.526733,225.822235 471.438202,226.202988 
	C468.301697,226.371460 466.294647,227.470474 466.264130,230.878525 
	C466.240417,233.523941 465.431488,236.425201 466.878326,238.732819 
	C469.457520,242.846420 474.518707,239.204468 478.073578,241.813599 
	C476.343872,247.522629 471.931824,250.281158 467.418701,252.954041 
	C465.361267,251.041321 465.722961,249.048920 465.594421,247.318024 
	C465.281128,243.099472 463.480621,241.124954 458.987305,241.133636 
	C451.649139,241.147842 451.125397,241.596008 451.044617,248.957016 
	C450.995239,253.455521 452.486511,255.961060 457.338165,255.785645 
	C458.718872,255.735748 460.397797,255.318756 461.463165,257.208221 
	C459.951447,260.718567 456.772675,262.247314 453.363861,262.831757 
	C450.382202,263.342926 451.136353,260.165619 450.302094,258.578827 
	C449.796387,257.616882 448.922699,257.208984 447.975739,256.835785 
	C440.448639,253.869263 436.161926,256.475769 436.138184,264.316376 
	C436.124237,268.916809 434.664215,271.351288 429.617767,270.402496 
	C428.288788,270.152618 426.508087,269.776886 426.188080,272.858612 
	C445.798431,272.646484 461.607483,264.169769 474.772552,250.944931 
	C486.129791,239.536087 493.654144,225.755219 494.897766,208.147781 
	C492.011017,209.751663 490.477509,211.269547 488.114929,211.222748 
	C485.519745,211.171341 481.995270,211.041534 481.936615,214.648911 
	C481.869629,218.770523 479.861359,223.864044 485.935333,226.924454 
M507.846649,120.657829 
	C512.471741,118.798737 510.532745,114.705093 510.681946,111.544724 
	C510.866486,107.635323 512.195007,105.572876 516.307556,105.794395 
	C517.798889,105.874725 519.306458,105.664474 520.796509,105.754646 
	C524.144714,105.957291 525.765747,104.413155 525.807800,101.100121 
	C525.834045,99.033897 526.193420,97.050056 528.083008,95.840042 
	C534.985596,91.419937 541.911560,87.035973 548.854126,82.678978 
	C549.831604,82.065491 550.932434,81.632927 552.007629,81.193779 
	C554.309143,80.253761 555.915405,80.670807 556.270264,83.463531 
	C556.437683,84.780685 556.516602,86.144104 556.929932,87.388824 
	C558.599365,92.416321 562.937012,90.387489 566.280640,90.666100 
	C569.368591,90.923386 570.718567,88.974319 570.823792,85.996056 
	C571.010681,80.704803 570.757629,75.721199 564.165527,75.503601 
	C563.458069,72.698479 566.755371,72.019386 565.880188,69.297203 
	C542.380737,84.868149 516.964722,96.557259 494.784637,112.379333 
	C496.174988,120.383537 500.881012,121.759796 507.846649,120.657829 
M566.314331,111.464668 
	C565.191040,109.399300 565.262939,107.559624 567.586792,106.450470 
	C571.803528,104.437881 572.461426,108.584724 574.291138,111.148712 
	C575.150208,108.430893 575.077026,105.345665 578.394165,105.815750 
	C584.911316,106.739304 586.244690,103.147423 586.427490,97.731369 
	C586.595032,92.765892 585.568420,91.451286 580.102600,91.287758 
	C572.145203,91.049698 571.639282,91.448860 571.872437,97.227928 
	C571.976807,99.814835 572.713806,102.905106 569.275146,103.981567 
	C566.603027,104.818085 564.151978,106.429504 561.186523,106.347107 
	C558.855225,106.282326 556.607788,106.824074 556.537842,109.664589 
	C556.453979,113.065186 555.542908,117.161545 558.586060,119.454247 
	C563.733704,123.332413 570.414551,120.250183 571.836365,113.778763 
	C570.295227,112.802361 568.124756,113.572876 566.314331,111.464668 
M429.727631,135.210159 
	C432.185852,135.570862 435.046051,135.563477 435.303223,132.603302 
	C435.838104,126.446449 439.556854,127.763626 443.094696,128.869080 
	C446.408508,129.904541 450.545746,129.732086 451.795959,134.363525 
	C452.183838,135.800354 453.969635,135.468323 455.308685,135.553314 
	C463.494354,136.072845 468.482086,130.471115 475.226440,125.525833 
	C471.141510,125.461212 469.192566,127.446747 467.059875,128.728409 
	C462.672974,131.364777 458.703735,132.178085 453.573975,129.730057 
	C445.479370,125.867134 436.823151,123.149254 427.684692,122.950516 
	C422.792969,122.844124 421.268036,124.929565 421.398376,129.722397 
	C421.544098,135.080597 425.019745,135.277710 429.727631,135.210159 
M492.942352,135.765182 
	C496.727692,134.869003 495.490692,131.762512 495.860077,129.296280 
	C496.790985,123.081001 493.446167,120.505745 487.585052,120.532356 
	C488.358673,118.065407 491.009003,117.789749 490.706818,115.182388 
	C485.540253,117.161385 481.857147,120.649918 476.606323,124.057388 
	C481.632172,124.066528 481.405487,126.864967 481.396393,129.551559 
	C481.381226,134.036606 483.400665,136.353989 488.105133,135.898605 
	C489.419647,135.771362 490.755615,135.865662 492.942352,135.765182 
M409.155548,256.515503 
	C404.944702,258.009521 406.609711,261.707581 406.167816,264.590363 
	C405.946838,266.032196 406.444061,267.565582 405.544495,268.929749 
	C404.528839,270.469849 402.616943,269.414062 400.397522,270.443756 
	C405.410919,271.896027 409.466125,273.096161 413.741974,273.429504 
	C415.291504,273.550354 416.435791,273.121338 417.758453,272.115814 
	C422.275879,268.681732 421.002625,264.039581 420.312653,259.813782 
	C419.658691,255.808304 415.660370,257.012878 412.939606,256.419250 
	C411.993439,256.212830 410.961426,256.400055 409.155548,256.515503 
M464.603455,163.956512 
	C465.703217,161.974396 465.600494,159.804459 465.653931,157.639297 
	C465.766174,153.093643 463.809143,151.361221 459.079559,151.071182 
	C453.254761,150.713974 450.920105,153.394531 450.691101,158.267426 
	C447.184509,159.405884 445.067963,156.601089 440.797150,156.499954 
	C447.358917,160.568817 451.765656,164.973465 457.003693,170.058563 
	C457.016052,163.864670 462.074310,166.828583 464.603455,163.956512 
M369.280060,241.263565 
	C366.615997,241.563110 363.364136,240.231613 361.732727,243.566223 
	C358.511261,250.151138 362.067474,255.895432 369.292847,255.829697 
	C372.184448,255.803375 375.502625,256.510956 375.875671,251.885040 
	C376.407593,245.288971 374.893280,242.275009 369.280060,241.263565 
M466.298187,144.217346 
	C467.203766,150.514862 468.961121,151.570404 476.831635,150.777405 
	C482.884125,150.167572 480.641754,145.491714 480.706177,142.375870 
	C480.814117,137.154282 479.183990,136.465958 472.357056,136.226334 
	C466.876648,136.033951 465.892853,138.945770 466.298187,144.217346 
M347.448761,256.957581 
	C345.212585,260.869293 345.202393,265.293732 347.154083,268.838959 
	C349.096710,272.367676 353.496979,270.457184 356.852051,270.745087 
	C357.177551,270.773010 357.514801,270.695251 357.843750,270.646942 
	C359.528870,270.399353 360.394257,269.449768 360.772369,267.750061 
	C362.367706,260.578857 359.822235,256.939148 352.639191,256.423248 
	C351.161346,256.317108 349.661285,256.521149 347.448761,256.957581 
M316.170135,230.988266 
	C316.466309,234.125809 314.565277,237.978317 317.927643,240.169891 
	C323.290161,243.665115 330.151794,239.983215 330.402069,233.651184 
	C330.514252,230.812134 331.194336,226.856583 327.149445,226.502136 
	C323.316345,226.166229 318.247192,224.159851 316.170135,230.988266 
M571.241638,128.383102 
	C571.886658,135.024872 574.021362,136.515030 581.596985,135.884201 
	C587.643250,135.380722 585.607056,130.762024 585.623169,127.604034 
	C585.649170,122.515083 583.860107,121.628944 576.657776,121.319283 
	C571.950317,121.116882 571.055237,123.740799 571.241638,128.383102 
M496.555664,172.935089 
	C496.511414,175.347809 495.580170,178.084747 498.401550,179.614807 
	C505.098969,183.246857 510.234253,180.229584 510.107330,172.903275 
	C510.046844,169.412537 510.194458,166.232986 505.187195,166.125626 
	C498.605286,165.984528 497.569031,166.502563 496.555664,172.935089 
M555.492981,101.964287 
	C555.310852,99.650848 555.275513,97.314224 554.914368,95.029083 
	C554.278198,91.004326 550.766113,91.787445 548.178223,91.478058 
	C545.831299,91.197487 542.607483,90.436195 541.793884,93.671463 
	C540.872864,97.334084 540.463745,101.491310 543.503662,104.435158 
	C545.725403,106.586662 552.712402,105.233772 555.492981,101.964287 
M436.977509,147.524567 
	C439.216858,150.074982 446.812653,151.099976 449.001190,149.147095 
	C450.448822,147.855301 451.383789,139.281143 450.286194,137.661926 
	C449.756195,136.880066 448.958832,136.803482 448.151764,136.618637 
	C439.244720,134.578659 435.658264,137.754166 436.977509,147.524567 
M356.994110,238.477997 
	C357.907501,239.222656 359.248260,240.246765 359.965363,239.022720 
	C361.561340,236.298462 360.592438,233.257889 360.186066,230.345215 
	C359.895172,228.260406 358.660980,227.297623 356.552917,226.981705 
	C346.987854,225.548233 345.586853,227.315903 345.976624,236.477539 
	C349.830902,234.664383 353.337860,235.229996 356.994110,238.477997 
M319.272461,250.871887 
	C319.176086,251.173538 319.045898,251.470474 319.002747,251.779572 
	C318.988678,251.880127 319.209686,252.121521 319.310089,252.114365 
	C322.957703,251.854752 325.598236,249.297089 328.625519,247.741455 
	C333.254425,245.362808 337.471436,242.182617 341.863342,239.342728 
	C333.145203,240.850342 326.864594,246.455750 319.272461,250.871887 
z"/>
<path fill="#000000" opacity="1.000000" stroke="none" 
	d="
M533.391663,302.587891 
	C543.032227,329.592438 575.768860,337.493622 595.593445,317.619049 
	C616.569702,296.589783 606.498108,262.341064 580.198853,254.929840 
	C576.389282,253.856323 573.891357,253.443207 570.134216,256.732635 
	C565.868958,260.466919 560.785034,264.536865 553.986877,265.289520 
	C557.799988,261.407806 560.498108,256.893982 567.528503,256.331360 
	C562.658203,253.153351 562.935486,250.530365 565.000061,247.203171 
	C575.802246,229.794937 581.016296,210.371033 584.842163,190.509460 
	C586.986511,179.376846 588.427979,168.149170 587.914734,156.759293 
	C587.762939,153.392456 589.073669,150.979050 592.356628,149.752457 
	C596.454102,148.221542 600.281189,145.876389 604.770386,145.072021 
	C605.497986,148.003021 603.836243,149.435471 602.564697,150.782990 
	C598.440491,155.153488 596.148865,160.650986 596.353271,166.231018 
	C597.198792,189.310654 592.803162,212.007401 592.014832,234.944489 
	C591.720520,243.508636 594.166382,247.174896 602.089172,250.649384 
	C606.187378,252.446594 608.151855,256.246552 610.621277,259.541046 
	C615.351379,265.851624 624.050232,265.453522 628.073730,258.583618 
	C630.298645,254.784790 631.706970,250.597290 631.760864,246.236771 
	C631.989319,227.775833 640.020386,211.395691 645.259583,194.262543 
	C650.255188,177.926300 657.888672,162.396622 660.163696,145.221039 
	C660.717834,141.037460 659.878784,137.239655 657.846985,133.704132 
	C651.836914,123.246040 661.371948,110.884918 669.550903,109.297562 
	C675.222412,108.196831 677.516418,109.855888 676.999390,115.653679 
	C676.240173,124.166496 673.270874,132.137527 670.912781,140.293457 
	C666.201660,156.587769 662.282959,173.109879 657.938232,189.511749 
	C652.823486,208.820694 647.981506,228.213379 642.325256,247.364182 
	C636.526062,266.999023 631.932922,286.923798 626.730347,306.700134 
	C621.864746,325.195190 616.063049,343.442017 610.910522,361.864410 
	C608.443848,370.683685 606.240173,379.576782 603.091248,388.184875 
	C602.323303,390.283997 601.869629,392.721802 599.338318,394.081848 
	C596.332947,390.584320 596.713684,386.599518 597.809631,382.792297 
	C600.305298,374.122650 601.580811,365.214417 603.373169,356.409210 
	C605.222656,347.323242 598.608032,338.486359 589.378052,336.972839 
	C583.215454,335.962341 577.175049,336.079529 570.993042,336.773987 
	C562.695251,337.706146 554.847778,335.005829 547.106445,332.484985 
	C542.664429,331.038544 538.251282,329.779938 534.276184,332.829193 
	C529.951050,336.146973 530.678345,341.002594 531.401611,345.735077 
	C532.587524,353.495209 538.433594,359.333771 539.973511,366.937561 
	C540.600403,370.032471 541.459778,373.080078 542.097168,376.173187 
	C542.360291,377.450195 542.648010,378.945221 541.267822,379.817963 
	C539.704285,380.806702 538.345154,379.774170 537.147827,378.943817 
	C534.595337,377.173706 533.359192,374.394073 531.879150,371.781128 
	C528.282837,365.432068 527.381042,357.769562 522.163208,351.929413 
	C511.602417,358.171478 501.130280,364.503448 489.590881,368.922791 
	C476.644287,373.881012 463.482971,377.834167 449.808472,380.110168 
	C428.457153,383.663940 407.156677,382.626923 385.964355,379.030060 
	C375.909180,377.323425 366.532288,373.523224 358.454926,367.018158 
	C356.207672,365.208282 353.683380,363.957672 350.837891,363.453186 
	C340.776031,361.669250 331.831757,356.583679 322.082275,353.762970 
	C313.833527,351.376434 307.969696,344.519379 301.000122,339.716431 
	C299.087433,338.398285 297.176788,337.010193 295.536987,335.380707 
	C293.660400,333.515900 290.512238,331.858154 292.267426,328.485199 
	C293.869415,325.406677 300.230499,323.270294 302.722656,325.039185 
	C307.830231,328.664398 313.740356,330.498840 319.280212,333.148895 
	C359.349152,352.316284 400.765625,354.803284 443.412415,343.457977 
	C457.962799,339.587158 472.020905,334.600220 485.378357,327.646606 
	C500.700043,319.670532 514.523621,309.645325 526.847351,297.538788 
	C527.873840,296.530396 528.666809,295.088470 530.523743,294.974335 
	C532.398132,296.991028 532.742981,299.648254 533.391663,302.587891 
M479.263428,352.398865 
	C481.944397,353.229065 484.766937,352.312561 487.524139,353.288849 
	C489.385132,353.947815 490.984772,352.574310 491.802124,350.732849 
	C492.372589,349.447693 492.526764,348.017151 491.232819,347.139008 
	C488.165436,345.057373 485.151581,347.076691 482.217804,347.684326 
	C480.325745,348.076202 477.738770,348.769501 479.263428,352.398865 
z"/>
<path fill="#000000" opacity="1.000000" stroke="none" 
	d="
M426.718872,46.803688 
	C388.513519,50.773472 354.837738,64.305237 325.160278,88.271065 
	C289.219482,117.294769 267.261566,154.647171 256.924377,199.247803 
	C253.795853,212.746063 252.509567,226.472519 252.780350,240.331970 
	C252.850006,243.897430 246.851624,249.749893 243.498245,249.215744 
	C241.667572,248.924179 241.363266,247.320892 241.034622,245.846313 
	C236.966583,227.594574 234.103714,208.991211 235.359695,190.437759 
	C237.492004,158.938965 245.375854,128.943741 262.685486,101.764992 
	C273.558807,84.692245 286.098358,69.535400 302.624725,57.764065 
	C307.594177,54.224442 312.684174,52.818211 318.513397,55.437481 
	C321.206177,56.647434 323.850769,56.802689 326.582916,55.055061 
	C331.863068,51.677536 337.755280,51.605953 343.867065,51.747387 
	C360.668549,52.136200 377.713501,53.598965 394.124664,49.513279 
	C406.944977,46.321556 419.592499,41.901871 431.634827,36.181892 
	C434.065430,35.027378 436.487610,33.953960 439.111053,33.457008 
	C443.472778,32.630787 445.691772,29.151337 448.274445,26.170593 
	C449.299286,24.987757 449.251007,23.315237 448.653992,21.874279 
	C447.868896,19.979450 446.202972,20.551874 444.757874,20.776730 
	C434.813416,22.324039 424.983459,19.634520 415.067932,19.978727 
	C413.136597,20.045774 411.248932,19.285185 411.003754,17.076565 
	C410.759338,14.874666 412.633118,14.255915 414.319489,14.180000 
	C425.288086,13.686227 436.769745,12.079181 446.768494,17.060795 
	C454.568726,20.947065 462.205231,21.024721 470.251068,21.238499 
	C476.721893,21.410433 482.363617,24.696835 488.276215,26.794594 
	C507.431610,33.590824 524.599121,43.989101 540.374878,56.718758 
	C543.341614,59.112694 546.077332,61.801830 548.834106,64.444077 
	C550.886230,66.411011 550.668152,67.739059 548.001160,69.391594 
	C542.865906,72.573425 538.837585,71.881065 533.402893,69.012016 
	C511.562927,57.482395 488.168488,50.502705 463.514587,48.176311 
	C454.238586,47.301014 444.975647,46.031460 435.625427,46.190708 
	C432.803711,46.238762 429.986298,46.542313 426.718872,46.803688 
z"/>
<path fill="#000000" opacity="1.000000" stroke="none" 
	d="
M676.023621,285.979248 
	C675.501892,288.586517 675.208923,291.266571 674.407715,293.784943 
	C673.010803,298.175934 669.540710,299.302917 665.303833,298.964996 
	C661.167603,298.635101 661.221680,295.253571 661.271973,292.656830 
	C661.378174,287.180939 658.682739,285.930573 653.817993,286.037933 
	C650.929138,286.101685 646.615051,287.758423 646.036255,282.424622 
	C645.484802,277.343018 649.352783,271.556915 653.628845,270.732330 
	C656.095947,270.256622 659.510681,270.853027 659.798035,267.101562 
	C660.072937,263.511627 660.500244,259.446106 656.625366,257.321472 
	C654.183289,255.982437 653.926575,254.339157 654.298889,251.990967 
	C654.852783,248.497177 655.948364,245.144653 657.563538,242.079071 
	C659.078613,239.203400 659.974854,236.281769 660.247559,233.104919 
	C660.662292,228.272934 662.852600,225.774414 668.126465,225.465179 
	C675.094543,225.056595 675.436096,224.027374 675.042480,217.090057 
	C674.843506,213.581940 672.790771,212.444672 669.982849,212.068832 
	C665.487000,211.467072 664.960327,208.682266 666.292847,205.268677 
	C667.820679,201.354889 668.685059,197.101776 673.367188,194.963242 
	C676.539795,193.514145 675.721436,189.687408 675.595276,186.799622 
	C675.397949,182.282501 677.181763,180.454254 681.733154,180.693970 
	C692.651489,181.269028 690.641907,179.713684 690.929321,171.404861 
	C690.981079,169.908218 690.999451,168.410431 691.017273,166.456573 
	C691.001282,166.000000 690.984375,166.018967 690.984375,166.018967 
	C693.613159,166.370102 696.250000,166.669785 698.868774,167.084244 
	C702.953674,167.730759 704.852905,170.217697 704.925110,174.312546 
	C704.998779,178.488617 702.399414,179.554810 698.898132,180.038849 
	C691.863525,181.011322 688.533813,187.235764 691.654724,193.524155 
	C693.216614,196.671204 696.647278,196.480408 699.416138,197.314697 
	C702.050293,198.108368 704.382935,198.770981 705.016052,202.077789 
	C706.304871,208.809799 704.887024,210.707260 697.884399,210.917358 
	C695.893127,210.977112 693.901794,211.031372 691.411560,210.589935 
	C690.917969,207.431641 690.957642,204.771072 690.918518,202.111649 
	C690.882263,199.647781 690.516113,197.179245 687.349854,197.145523 
	C683.863831,197.108414 679.693909,195.274948 677.194580,198.973602 
	C673.621643,204.261261 677.153259,210.550018 683.537231,210.813339 
	C686.028564,210.916107 688.523438,210.930298 691.016724,210.984818 
	C691.053772,213.143372 691.223816,215.309494 691.101135,217.458939 
	C690.817688,222.425171 692.044067,226.233795 697.428955,227.883911 
	C699.228882,228.435455 700.928162,229.873016 702.246460,231.300049 
	C703.964294,233.159637 705.080933,235.621094 704.272217,238.172165 
	C703.519226,240.547195 701.014221,240.040588 699.120117,240.336044 
	C690.869446,241.622971 690.515564,242.193268 691.106445,250.509155 
	C691.348755,253.918457 693.107117,255.300568 696.103333,256.388245 
	C701.954224,258.512207 702.826111,262.261414 699.055054,266.984100 
	C697.502747,268.928070 695.795349,270.482483 693.171814,269.764069 
	C690.608643,269.062195 691.194397,266.632751 690.887329,264.761169 
	C690.361145,261.553802 689.737366,258.260315 685.913574,257.558289 
	C683.223083,257.064301 679.800781,255.998901 677.960022,258.582947 
	C675.978516,261.364441 676.557312,265.096069 677.555908,268.229706 
	C678.413940,270.922394 681.440369,270.343323 683.630859,270.613129 
	C690.099182,271.409790 693.328552,277.360474 690.449829,283.345551 
	C689.595459,285.121796 688.024963,285.582092 686.359558,285.696167 
	C683.213501,285.911713 680.054626,285.940063 676.405151,285.586731 
	C675.840393,283.128784 675.851624,281.123718 675.688171,279.132996 
	C675.168274,272.800537 674.395874,272.209320 668.046753,271.957123 
	C664.051086,271.798370 661.198364,272.334503 661.284607,277.427673 
	C661.401428,284.321747 662.266113,285.648956 668.028320,285.761292 
	C670.693848,285.813263 673.358521,285.905334 676.023621,285.979248 
M682.473755,226.577820 
	C680.508118,226.744659 678.380859,226.525665 676.961914,228.291473 
	C675.450806,230.171936 676.253540,237.707962 678.039490,239.212646 
	C679.637268,240.558792 688.340698,241.250549 689.620850,240.014709 
	C690.169373,239.485199 690.506775,238.627930 690.702576,237.859100 
	C692.563599,230.551605 690.615723,227.641144 682.473755,226.577820 
M673.470764,254.144989 
	C675.658752,251.716476 675.080933,248.794098 674.568726,246.091629 
	C673.895325,242.537811 670.784485,242.246811 667.919800,242.180130 
	C665.612549,242.126450 663.173462,242.164078 662.211670,245.056488 
	C660.089783,251.437271 662.627502,254.998093 669.275085,254.852921 
	C670.430725,254.827698 671.583069,254.652542 673.470764,254.144989 
z"/>
<path fill="#000000" opacity="1.000000" stroke="none" 
	d="
M592.159912,298.950104 
	C588.067017,309.716949 579.101746,313.651550 569.357361,315.885590 
	C565.577576,316.752167 561.519958,314.683899 558.122437,312.510681 
	C549.876526,307.236176 543.583069,300.154175 544.121338,289.945160 
	C544.679688,279.356567 550.464172,271.197388 560.747131,267.797577 
	C569.043579,265.054535 577.621399,265.305725 584.592957,271.837860 
	C591.610840,278.413391 594.625427,286.508362 592.802795,296.149811 
	C592.648682,296.965332 592.439758,297.770508 592.159912,298.950104 
z"/>
<path fill="#000000" opacity="1.000000" stroke="none" 
	d="
M663.679871,181.815552 
	C664.701782,172.677490 671.252991,166.805679 675.362976,159.598602 
	C668.162537,189.152252 660.843384,218.672348 652.138550,248.685471 
	C646.815674,241.418976 648.087341,230.567520 654.257507,224.929977 
	C656.248901,223.110504 656.484009,221.660110 655.987244,218.944550 
	C654.768677,212.283295 656.935303,205.785324 658.837952,199.488205 
	C660.568909,193.759415 662.329163,188.059952 663.679871,181.815552 
z"/>
<path fill="#000000" opacity="1.000000" stroke="none" 
	d="
M215.336121,150.089142 
	C210.293533,148.583206 212.248535,145.621948 213.877060,143.516052 
	C215.566986,141.330734 217.804108,139.153641 220.281601,138.084305 
	C224.575653,136.230896 225.950027,133.309616 226.419220,128.896210 
	C227.065933,122.812897 229.103714,121.673340 235.113800,122.689758 
	C235.769714,128.806183 233.374390,133.809799 228.320938,136.391983 
	C226.692856,137.223877 226.300751,138.458054 226.241776,140.017975 
	C226.178833,141.682312 226.075729,143.350540 226.127991,145.012741 
	C226.257751,149.138824 224.881699,151.469101 220.226898,150.454910 
	C218.778824,150.139389 217.242844,150.227478 215.336121,150.089142 
z"/>
<path fill="#000000" opacity="1.000000" stroke="none" 
	d="
M534.049805,6.051561 
	C534.033997,9.359018 536.463806,11.379092 537.711609,14.960487 
	C529.678284,15.216469 523.894714,18.036768 525.007446,27.594723 
	C519.505920,26.757904 516.167480,23.763271 512.996521,20.754637 
	C511.505493,19.339912 512.139282,17.588495 514.309570,17.051483 
	C515.749756,16.695133 517.262817,16.584246 518.751343,16.481485 
	C522.651611,16.212219 525.136780,14.726538 525.789429,10.374577 
	C526.465027,5.870106 529.046997,3.540841 534.049805,6.051561 
z"/>
<path fill="#000000" opacity="1.000000" stroke="none" 
	d="
M540.828430,30.806183 
	C541.074158,28.001682 541.222839,25.184238 541.594604,22.396547 
	C541.924805,19.920141 542.216125,17.173018 545.678650,17.159866 
	C549.285217,17.146166 552.251587,18.477110 553.542297,22.084587 
	C555.259583,26.884357 553.619568,29.587851 548.465027,30.538605 
	C546.354980,30.927794 544.179565,30.962883 541.515381,31.070465 
	C540.996765,30.981873 540.828430,30.806183 540.828430,30.806183 
z"/>
<path fill="#000000" opacity="1.000000" stroke="none" 
	d="
M211.901474,174.919250 
	C212.263306,171.553696 210.974777,167.727570 215.544449,166.988022 
	C218.339584,166.535675 221.902985,164.828644 223.705597,167.974930 
	C225.751862,171.546570 223.532516,175.603241 222.046829,178.748291 
	C220.887421,181.202606 216.922974,180.073380 214.204590,179.692581 
	C211.786652,179.353867 212.069839,177.142700 211.901474,174.919250 
z"/>
<path fill="#000000" opacity="1.000000" stroke="none" 
	d="
M541.868469,283.991974 
	C541.003601,288.119446 540.427307,291.956238 536.602722,294.030090 
	C532.647400,286.862640 537.720703,272.861755 547.112122,266.427917 
	C548.437195,273.325012 543.145203,277.910187 541.868469,283.991974 
z"/>
<path fill="#000000" opacity="1.000000" stroke="none" 
	d="
M632.914185,316.086548 
	C632.816833,320.073517 631.195801,323.115509 629.953796,326.415802 
	C626.462036,325.807037 625.536682,323.683929 626.386475,321.266663 
	C628.221619,316.046356 628.565369,310.518677 630.130981,305.261688 
	C630.803162,303.004425 631.472046,300.943420 633.966492,299.793335 
	C636.965393,298.410645 636.756042,294.717102 638.908447,292.490387 
	C637.255981,297.542053 637.632812,303.207703 634.786438,307.790161 
	C633.153870,310.418396 632.494202,312.797455 632.914185,316.086548 
z"/>
<path fill="#000000" opacity="1.000000" stroke="none" 
	d="
M641.653748,285.694946 
	C637.787903,285.904327 638.803284,282.534607 639.308289,281.401733 
	C642.187805,274.941620 643.978210,268.540588 643.128967,261.263519 
	C642.651123,257.168549 644.985352,253.579590 650.495056,251.689667 
	C648.366150,263.548920 645.008301,274.471497 641.653748,285.694946 
z"/>
<path fill="#000000" opacity="1.000000" stroke="none" 
	d="
M646.031738,316.030945 
	C645.986511,313.226044 645.820007,310.416260 645.933594,307.617798 
	C646.028320,305.286743 645.180969,301.914795 648.614563,301.626068 
	C651.552490,301.378998 655.219910,301.123352 657.146667,304.273346 
	C658.970947,307.255676 657.020874,309.527496 654.961304,311.638184 
	C652.663330,313.993225 649.778564,315.082550 646.346924,315.913940 
	C646.000427,315.999878 646.031738,316.030945 646.031738,316.030945 
z"/>
<path fill="#000000" opacity="1.000000" stroke="none" 
	d="
M645.985046,315.984070 
	C645.697327,319.115051 645.360657,322.257904 645.168945,325.409546 
	C644.925415,329.412476 642.517456,330.473236 639.031799,330.032135 
	C635.410095,329.573792 635.119141,327.187592 635.588928,324.160156 
	C636.591736,317.698151 638.059631,316.374847 645.612793,316.018585 
	C646.031738,316.030945 646.000427,315.999878 645.985046,315.984070 
z"/>
<path fill="#000000" opacity="1.000000" stroke="none" 
	d="
M691.010559,165.991211 
	C688.887695,165.768784 686.744202,165.298965 684.625793,165.393234 
	C679.767822,165.609451 678.467407,163.474854 679.864563,159.061447 
	C680.759827,156.233719 681.092407,153.007019 685.240784,153.186432 
	C689.632568,153.376373 689.917114,156.507187 690.122925,159.814163 
	C690.235229,161.618698 690.620911,163.406219 690.933838,165.610199 
	C690.984375,166.018967 691.001282,166.000000 691.010559,165.991211 
z"/>
<path fill="#000000" opacity="1.000000" stroke="none" 
	d="
M216.065338,198.961746 
	C218.361176,197.720215 220.890564,195.776199 222.458878,198.272552 
	C224.127823,200.929077 222.886551,204.107788 220.977432,206.514023 
	C219.640137,208.199524 217.348282,207.817062 216.033417,206.753937 
	C213.320740,204.560608 214.247192,201.800201 216.065338,198.961746 
z"/>
<path fill="#000000" opacity="1.000000" stroke="none" 
	d="
M285.988953,285.986938 
	C285.545471,289.728485 285.113037,293.481689 284.691681,297.139038 
	C283.228973,298.030823 282.933441,296.540405 282.162476,296.159424 
	C280.470184,295.323120 277.235229,296.494202 277.492401,293.094116 
	C277.720825,290.073792 279.604980,287.970337 282.432037,286.841003 
	C283.336884,286.479523 284.325470,286.327698 285.649658,286.050171 
	C286.023560,286.020416 286.000031,285.998627 285.988953,285.986938 
z"/>
<path fill="#000000" opacity="1.000000" stroke="none" 
	d="
M294.691772,251.679779 
	C292.484558,253.148117 290.881897,252.638962 289.789612,250.784134 
	C288.728882,248.982834 289.929504,247.673401 291.085236,246.414154 
	C293.228699,244.078720 296.134033,243.508835 299.226562,242.647751 
	C300.510803,247.117203 297.192230,249.028687 294.691772,251.679779 
z"/>
<path fill="#000000" opacity="1.000000" stroke="none" 
	d="
M557.111938,43.596241 
	C557.890259,36.697205 559.394287,35.235069 562.796753,37.740353 
	C564.872437,39.268738 566.716980,41.971790 564.888916,43.961864 
	C563.071655,45.940067 559.759888,46.984173 557.111938,43.596241 
z"/>
<path fill="#000000" opacity="1.000000" stroke="none" 
	d="
M541.083374,31.067280 
	C541.023743,33.584164 541.744751,36.148361 539.922546,38.672668 
	C536.261536,37.902134 533.616699,35.873692 531.606262,32.623142 
	C534.324463,30.163597 537.312866,31.260124 540.412476,30.819933 
	C540.828430,30.806183 540.996765,30.981873 541.083374,31.067280 
z"/>
<path fill="#000000" opacity="1.000000" stroke="none" 
	d="
M582.616211,455.787231 
	C579.076843,451.870697 579.737854,448.295959 582.487854,444.491394 
	C585.958130,448.037384 585.996704,452.881714 582.616211,455.787231 
z"/>
<path fill="#000000" opacity="1.000000" stroke="none" 
	d="
M240.193359,254.526184 
	C243.353729,252.518326 246.534378,250.772949 250.113403,248.808975 
	C251.028259,253.302734 247.739197,255.006119 246.510132,258.255066 
	C244.589951,256.223511 242.460388,255.376297 240.193359,254.526184 
z"/>
<path fill="#000000" opacity="1.000000" stroke="none" 
	d="
M236.303345,148.552628 
	C232.798141,147.097397 232.682297,146.220978 235.404785,142.029953 
	C238.958878,143.635483 235.949768,146.268280 236.303345,148.552628 
z"/>
<path fill="#000000" opacity="1.000000" stroke="none" 
	d="
M608.933655,56.447067 
	C610.727295,56.146400 612.186523,56.019001 613.251160,57.878864 
	C611.421692,59.563358 609.425049,60.232193 607.504517,58.719368 
	C606.508606,57.934837 607.756348,57.047680 608.933655,56.447067 
z"/>
</svg>